<svg width="328" height="401" viewBox="0 0 328 401" version="1.1" xmlns="http://www.w3.org/2000/svg"><g stroke="none" stroke-width="1" fill="none" fill-rule="evenodd"><g fill-rule="nonzero" fill="#78827D"><path d="M320.5 189.7C315.1 184.4 309.7 181.7 302 181.7L291.9 181.7 291.9 126.9C291.9 91.9 279.3 61.8 254.2 36.7 229.1 11.6 199 0 164 0 129 0 98.9 11.6 73.8 36.7 48.7 61.8 36.1 91.9 36.1 126.9L36.1 181.7 26 181.7C18.3 181.7 12.9 184.4 7.5 189.7 2.2 195 0.5 201.5 0.5 209.1L0.5 373.6C0.5 381.2 2.2 387.7 7.5 393 12.9 398.3 19.3 401 27 401L301 401C308.7 401 315.1 398.3 320.5 393 325.8 387.7 327.5 381.2 327.5 373.6L327.5 209.1C327.5 201.5 325.8 195.1 320.5 189.7ZM237.1 181.7L90.9 181.7 90.9 126.9C90.9 106.7 98 89.5 112.3 75.2 126.6 61 143.8 53.8 164 53.8 184.2 53.8 201.4 61 215.7 75.2 229.9 89.5 237.1 106.7 237.1 126.9L237.1 181.7Z"/></g></g></svg>